<mxfile host="app.diagrams.net" agent="Mozilla/5.0 (X11; Linux x86_64; rv:128.0) Gecko/20100101 Firefox/128.0" version="27.1.4">
  <diagram name="Page-1" id="RNgMhTl61DN9taRAJX3I">
    <mxGraphModel dx="1428" dy="712" grid="1" gridSize="10" guides="1" tooltips="1" connect="1" arrows="1" fold="1" page="1" pageScale="1" pageWidth="850" pageHeight="1100" math="0" shadow="0">
      <root>
        <mxCell id="0" />
        <mxCell id="1" parent="0" />
        <mxCell id="XjUW2VnUJL-pxSLcL79l-2" value="&lt;div&gt;User Browser&lt;/div&gt;" style="rounded=0;whiteSpace=wrap;html=1;" vertex="1" parent="1">
          <mxGeometry x="390" y="100" width="120" height="60" as="geometry" />
        </mxCell>
        <mxCell id="XjUW2VnUJL-pxSLcL79l-3" value="" style="endArrow=classic;html=1;rounded=0;" edge="1" parent="1">
          <mxGeometry relative="1" as="geometry">
            <mxPoint x="520" y="129.5" as="sourcePoint" />
            <mxPoint x="620" y="129.5" as="targetPoint" />
            <Array as="points">
              <mxPoint x="570" y="129.5" />
            </Array>
          </mxGeometry>
        </mxCell>
        <mxCell id="XjUW2VnUJL-pxSLcL79l-5" value="A" style="text;strokeColor=none;align=center;fillColor=none;html=1;verticalAlign=middle;whiteSpace=wrap;rounded=0;fontSize=26;" vertex="1" parent="1">
          <mxGeometry x="610" y="115" width="60" height="30" as="geometry" />
        </mxCell>
        <mxCell id="XjUW2VnUJL-pxSLcL79l-8" value="React Frontend" style="rounded=0;whiteSpace=wrap;html=1;" vertex="1" parent="1">
          <mxGeometry x="390" y="320" width="120" height="60" as="geometry" />
        </mxCell>
        <mxCell id="XjUW2VnUJL-pxSLcL79l-9" value="" style="shape=singleArrow;direction=south;whiteSpace=wrap;html=1;" vertex="1" parent="1">
          <mxGeometry x="420" y="180" width="60" height="100" as="geometry" />
        </mxCell>
        <mxCell id="XjUW2VnUJL-pxSLcL79l-45" value="" style="edgeStyle=orthogonalEdgeStyle;rounded=0;orthogonalLoop=1;jettySize=auto;html=1;" edge="1" parent="1" source="XjUW2VnUJL-pxSLcL79l-12" target="XjUW2VnUJL-pxSLcL79l-8">
          <mxGeometry relative="1" as="geometry" />
        </mxCell>
        <mxCell id="XjUW2VnUJL-pxSLcL79l-12" value="HTTPS" style="text;html=1;align=center;verticalAlign=middle;resizable=0;points=[];autosize=1;strokeColor=none;fillColor=none;fontSize=15;" vertex="1" parent="1">
          <mxGeometry x="470" y="210" width="70" height="30" as="geometry" />
        </mxCell>
        <mxCell id="XjUW2VnUJL-pxSLcL79l-14" value="Django Backend" style="rounded=0;whiteSpace=wrap;html=1;" vertex="1" parent="1">
          <mxGeometry x="300" y="520" width="120" height="60" as="geometry" />
        </mxCell>
        <mxCell id="XjUW2VnUJL-pxSLcL79l-15" value="Render Static Site" style="rounded=0;whiteSpace=wrap;html=1;" vertex="1" parent="1">
          <mxGeometry x="445" y="520" width="120" height="60" as="geometry" />
        </mxCell>
        <mxCell id="XjUW2VnUJL-pxSLcL79l-20" value="" style="shape=singleArrow;direction=south;whiteSpace=wrap;html=1;" vertex="1" parent="1">
          <mxGeometry x="370" y="400" width="60" height="100" as="geometry" />
        </mxCell>
        <mxCell id="XjUW2VnUJL-pxSLcL79l-21" value="" style="shape=singleArrow;direction=south;whiteSpace=wrap;html=1;" vertex="1" parent="1">
          <mxGeometry x="470" y="400" width="60" height="100" as="geometry" />
        </mxCell>
        <mxCell id="XjUW2VnUJL-pxSLcL79l-22" value="Static Assets" style="text;html=1;align=center;verticalAlign=middle;resizable=0;points=[];autosize=1;strokeColor=none;fillColor=none;" vertex="1" parent="1">
          <mxGeometry x="530" y="430" width="90" height="30" as="geometry" />
        </mxCell>
        <mxCell id="XjUW2VnUJL-pxSLcL79l-23" value="" style="endArrow=classic;html=1;rounded=0;" edge="1" parent="1">
          <mxGeometry relative="1" as="geometry">
            <mxPoint x="520" y="349.5" as="sourcePoint" />
            <mxPoint x="620" y="349.5" as="targetPoint" />
          </mxGeometry>
        </mxCell>
        <mxCell id="XjUW2VnUJL-pxSLcL79l-25" value="B" style="text;html=1;align=center;verticalAlign=middle;resizable=0;points=[];autosize=1;strokeColor=none;fillColor=none;fontSize=26;" vertex="1" parent="1">
          <mxGeometry x="620" y="330" width="40" height="40" as="geometry" />
        </mxCell>
        <mxCell id="XjUW2VnUJL-pxSLcL79l-26" value="API calls" style="text;html=1;align=center;verticalAlign=middle;resizable=0;points=[];autosize=1;strokeColor=none;fillColor=none;" vertex="1" parent="1">
          <mxGeometry x="300" y="430" width="70" height="30" as="geometry" />
        </mxCell>
        <mxCell id="XjUW2VnUJL-pxSLcL79l-27" value="" style="shape=singleArrow;direction=south;whiteSpace=wrap;html=1;" vertex="1" parent="1">
          <mxGeometry x="331" y="608" width="60" height="100" as="geometry" />
        </mxCell>
        <mxCell id="XjUW2VnUJL-pxSLcL79l-30" value="Gunicorn WSGI" style="text;html=1;align=center;verticalAlign=middle;resizable=0;points=[];autosize=1;strokeColor=none;fillColor=none;" vertex="1" parent="1">
          <mxGeometry x="370" y="640" width="110" height="30" as="geometry" />
        </mxCell>
        <mxCell id="XjUW2VnUJL-pxSLcL79l-31" value="&lt;div&gt;SQlite&lt;/div&gt;&lt;div&gt;queries&lt;/div&gt;" style="text;html=1;align=center;verticalAlign=middle;resizable=0;points=[];autosize=1;strokeColor=none;fillColor=none;" vertex="1" parent="1">
          <mxGeometry x="280" y="635" width="60" height="40" as="geometry" />
        </mxCell>
        <mxCell id="XjUW2VnUJL-pxSLcL79l-32" value="SQLite DB" style="rounded=0;whiteSpace=wrap;html=1;" vertex="1" parent="1">
          <mxGeometry x="300" y="730" width="120" height="60" as="geometry" />
        </mxCell>
        <mxCell id="XjUW2VnUJL-pxSLcL79l-33" value="&lt;font style=&quot;font-size: 26px;&quot;&gt;C&lt;/font&gt;" style="text;html=1;align=center;verticalAlign=middle;resizable=0;points=[];autosize=1;strokeColor=none;fillColor=none;" vertex="1" parent="1">
          <mxGeometry x="135" y="535" width="40" height="40" as="geometry" />
        </mxCell>
        <mxCell id="XjUW2VnUJL-pxSLcL79l-34" value="" style="shape=singleArrow;direction=south;whiteSpace=wrap;html=1;" vertex="1" parent="1">
          <mxGeometry x="330" y="810" width="60" height="100" as="geometry" />
        </mxCell>
        <mxCell id="XjUW2VnUJL-pxSLcL79l-35" value="Render Web Service" style="rounded=0;whiteSpace=wrap;html=1;" vertex="1" parent="1">
          <mxGeometry x="300" y="930" width="120" height="60" as="geometry" />
        </mxCell>
        <mxCell id="XjUW2VnUJL-pxSLcL79l-36" value="" style="endArrow=classic;html=1;rounded=0;" edge="1" parent="1">
          <mxGeometry relative="1" as="geometry">
            <mxPoint x="430" y="759.5" as="sourcePoint" />
            <mxPoint x="530" y="759.5" as="targetPoint" />
          </mxGeometry>
        </mxCell>
        <mxCell id="XjUW2VnUJL-pxSLcL79l-38" value="&lt;font style=&quot;font-size: 26px;&quot;&gt;D&lt;/font&gt;" style="text;html=1;align=center;verticalAlign=middle;resizable=0;points=[];autosize=1;strokeColor=none;fillColor=none;" vertex="1" parent="1">
          <mxGeometry x="530" y="740" width="40" height="40" as="geometry" />
        </mxCell>
        <mxCell id="XjUW2VnUJL-pxSLcL79l-39" value="" style="endArrow=classic;html=1;rounded=0;" edge="1" parent="1">
          <mxGeometry relative="1" as="geometry">
            <mxPoint x="430" y="959.5" as="sourcePoint" />
            <mxPoint x="530" y="959.5" as="targetPoint" />
          </mxGeometry>
        </mxCell>
        <mxCell id="XjUW2VnUJL-pxSLcL79l-41" value="&lt;font style=&quot;font-size: 26px;&quot;&gt;F&lt;/font&gt;" style="text;html=1;align=center;verticalAlign=middle;resizable=0;points=[];autosize=1;strokeColor=none;fillColor=none;" vertex="1" parent="1">
          <mxGeometry x="530" y="940" width="40" height="40" as="geometry" />
        </mxCell>
        <mxCell id="XjUW2VnUJL-pxSLcL79l-42" value="" style="endArrow=classic;html=1;rounded=0;" edge="1" parent="1">
          <mxGeometry relative="1" as="geometry">
            <mxPoint x="570" y="550" as="sourcePoint" />
            <mxPoint x="670" y="550" as="targetPoint" />
          </mxGeometry>
        </mxCell>
        <mxCell id="XjUW2VnUJL-pxSLcL79l-44" value="&lt;font style=&quot;font-size: 26px;&quot;&gt;E&lt;/font&gt;" style="text;html=1;align=center;verticalAlign=middle;resizable=0;points=[];autosize=1;strokeColor=none;fillColor=none;" vertex="1" parent="1">
          <mxGeometry x="670" y="530" width="40" height="40" as="geometry" />
        </mxCell>
        <mxCell id="XjUW2VnUJL-pxSLcL79l-46" value="" style="endArrow=classic;html=1;rounded=0;" edge="1" parent="1">
          <mxGeometry relative="1" as="geometry">
            <mxPoint x="180" y="554.5" as="sourcePoint" />
            <mxPoint x="280" y="554.5" as="targetPoint" />
          </mxGeometry>
        </mxCell>
      </root>
    </mxGraphModel>
  </diagram>
</mxfile>
